<?xml version="1.0" encoding="UTF-8" standalone="no"?>
<!DOCTYPE svg PUBLIC "-//W3C//DTD SVG 1.1//EN"
 "http://www.w3.org/Graphics/SVG/1.1/DTD/svg11.dtd">
<!-- Generated by graphviz version 2.43.0 (0)
 -->
<!-- Title: reachscan_control_surface Pages: 1 -->
<svg width="990pt" height="957pt"
 viewBox="0.00 0.00 990.00 957.00" xmlns="http://www.w3.org/2000/svg" xmlns:xlink="http://www.w3.org/1999/xlink">
<g id="graph0" class="graph" transform="scale(1 1) rotate(0) translate(4 953)">
<title>reachscan_control_surface</title>
<polygon fill="white" stroke="transparent" points="-4,4 -4,-953 986,-953 986,4 -4,4"/>
<text text-anchor="start" x="8" y="-930.8" font-family="Helvetica,sans-Serif" font-weight="bold" font-size="19.00">ReachScan Control Surface: What Can Be Chosen, What Gets Recorded, What Gets Locked</text>
<text text-anchor="start" x="180" y="-918.2" font-family="Helvetica,sans-Serif" font-style="italic" font-size="11.00">ReachScan becomes claim&#45;bearing when the object, sampling conditions, projection lens, and prediction rule are</text>
<text text-anchor="start" x="318" y="-907.2" font-family="Helvetica,sans-Serif" font-style="italic" font-size="11.00">declared before the run and then evaluated from raw receipts.</text>
<text text-anchor="start" x="489" y="-897.8" font-family="Helvetica,sans-Serif" font-size="9.00"> </text>
<!-- S1 -->
<g id="node1" class="node">
<title>S1</title>
<path fill="#f6dfc9" stroke="#b87333" stroke-width="1.6" d="M542.5,-891C542.5,-891 74.5,-891 74.5,-891 68.5,-891 62.5,-885 62.5,-879 62.5,-879 62.5,-831 62.5,-831 62.5,-825 68.5,-819 74.5,-819 74.5,-819 542.5,-819 542.5,-819 548.5,-819 554.5,-825 554.5,-831 554.5,-831 554.5,-879 554.5,-879 554.5,-885 548.5,-891 542.5,-891"/>
<text text-anchor="start" x="75.5" y="-871.8" font-family="Helvetica,sans-Serif" font-weight="bold" font-size="14.00">① SUBSTRATE</text>
<text text-anchor="start" x="183.5" y="-871.8" font-family="Helvetica,sans-Serif" font-size="14.00">   </text>
<text text-anchor="start" x="197.5" y="-871.8" font-family="Helvetica,sans-Serif" font-size="14.00" fill="#8a5a25">what am I measuring?</text>
<text text-anchor="start" x="353.5" y="-871.8" font-family="Helvetica,sans-Serif" font-size="14.00">   </text>
<text text-anchor="start" x="367.5" y="-871.8" font-family="Helvetica,sans-Serif" font-weight="bold" font-size="14.00" fill="#1f6feb">[declared &amp; recorded]</text>
<text text-anchor="start" x="75.5" y="-861" font-family="Helvetica,sans-Serif" font-size="10.00"> </text>
<text text-anchor="start" x="75.5" y="-851" font-family="Helvetica,sans-Serif" font-size="10.00">• source : model_id · revision (pin) · device/dtype</text>
<text text-anchor="start" x="75.5" y="-841" font-family="Helvetica,sans-Serif" font-size="10.00">• prefix : prompt · trace seed (single frozen trace)</text>
<text text-anchor="start" x="75.5" y="-831" font-family="Helvetica,sans-Serif" font-size="10.00">• source_arm : a </text>
<text text-anchor="start" x="160.5" y="-831" font-family="Helvetica,sans-Serif" font-style="italic" font-size="10.00">label</text>
<text text-anchor="start" x="185.5" y="-831" font-family="Helvetica,sans-Serif" font-size="10.00"> — the contrast must be built by the run design</text>
</g>
<!-- S2 -->
<g id="node2" class="node">
<title>S2</title>
<path fill="#cfede8" stroke="#0d9b8a" stroke-width="1.6" d="M583,-782C583,-782 34,-782 34,-782 28,-782 22,-776 22,-770 22,-770 22,-712 22,-712 22,-706 28,-700 34,-700 34,-700 583,-700 583,-700 589,-700 595,-706 595,-712 595,-712 595,-770 595,-770 595,-776 589,-782 583,-782"/>
<text text-anchor="start" x="35" y="-762.8" font-family="Helvetica,sans-Serif" font-weight="bold" font-size="14.00">② COMMITMENT GEOMETRY</text>
<text text-anchor="start" x="255" y="-762.8" font-family="Helvetica,sans-Serif" font-size="14.00">   </text>
<text text-anchor="start" x="269" y="-762.8" font-family="Helvetica,sans-Serif" font-size="14.00" fill="#0a6f63">where do I probe?</text>
<text text-anchor="start" x="394" y="-762.8" font-family="Helvetica,sans-Serif" font-size="14.00">   </text>
<text text-anchor="start" x="408" y="-762.8" font-family="Helvetica,sans-Serif" font-weight="bold" font-size="14.00" fill="#1f6feb">[declared &amp; recorded]</text>
<text text-anchor="start" x="35" y="-752" font-family="Helvetica,sans-Serif" font-size="10.00"> </text>
<text text-anchor="start" x="35" y="-742" font-family="Helvetica,sans-Serif" font-size="10.00">• plan : depth fraction f · rollouts M · committed_len override</text>
<text text-anchor="start" x="35" y="-732" font-family="Helvetica,sans-Serif" font-size="10.00">• M = finite&#45;sample </text>
<text text-anchor="start" x="135" y="-732" font-family="Helvetica,sans-Serif" font-style="italic" font-size="10.00">resolution</text>
<text text-anchor="start" x="184" y="-732" font-family="Helvetica,sans-Serif" font-size="10.00"> (tightens CIs; gates ‘inconclusive’)</text>
<text text-anchor="start" x="35" y="-722" font-family="Helvetica,sans-Serif" font-size="10.00">• include_prompt_only</text>
<text text-anchor="start" x="35" y="-712" font-family="Helvetica,sans-Serif" font-size="10.00">• run_depth_indices  </text>
<text text-anchor="start" x="139" y="-712" font-family="Helvetica,sans-Serif" font-size="10.00" fill="#888888">(execution / resume — not a scientific knob)</text>
</g>
<!-- S1&#45;&gt;S2 -->
<g id="edge1" class="edge">
<title>S1&#45;&gt;S2</title>
<path fill="none" stroke="#555555" stroke-width="1.4" d="M308.5,-818.87C308.5,-810.11 308.5,-800.56 308.5,-791.26"/>
<polygon fill="#555555" stroke="#555555" stroke-width="1.4" points="311.65,-791.08 308.5,-782.08 305.35,-791.08 311.65,-791.08"/>
</g>
<!-- S3 -->
<g id="node3" class="node">
<title>S3</title>
<path fill="#cfede8" stroke="#0d9b8a" stroke-width="1.6" d="M548.5,-641.5C548.5,-641.5 68.5,-641.5 68.5,-641.5 62.5,-641.5 56.5,-635.5 56.5,-629.5 56.5,-629.5 56.5,-581.5 56.5,-581.5 56.5,-575.5 62.5,-569.5 68.5,-569.5 68.5,-569.5 548.5,-569.5 548.5,-569.5 554.5,-569.5 560.5,-575.5 560.5,-581.5 560.5,-581.5 560.5,-629.5 560.5,-629.5 560.5,-635.5 554.5,-641.5 548.5,-641.5"/>
<text text-anchor="start" x="69.5" y="-622.3" font-family="Helvetica,sans-Serif" font-weight="bold" font-size="14.00">③ DECODING</text>
<text text-anchor="start" x="169.5" y="-622.3" font-family="Helvetica,sans-Serif" font-size="14.00">   </text>
<text text-anchor="start" x="183.5" y="-622.3" font-family="Helvetica,sans-Serif" font-size="14.00" fill="#0a6f63">how do I sample futures?</text>
<text text-anchor="start" x="359.5" y="-622.3" font-family="Helvetica,sans-Serif" font-size="14.00">   </text>
<text text-anchor="start" x="373.5" y="-622.3" font-family="Helvetica,sans-Serif" font-weight="bold" font-size="14.00" fill="#1f6feb">[declared &amp; recorded]</text>
<text text-anchor="start" x="69.5" y="-611.5" font-family="Helvetica,sans-Serif" font-size="10.00"> </text>
<text text-anchor="start" x="69.5" y="-601.5" font-family="Helvetica,sans-Serif" font-size="10.00">• trace_sampler / rollout_sampler :</text>
<text text-anchor="start" x="69.5" y="-591.5" font-family="Helvetica,sans-Serif" font-size="10.00">   temperature · top_p · top_k · rep_penalty · max_new_tokens</text>
<text text-anchor="start" x="69.5" y="-581.5" font-family="Helvetica,sans-Serif" font-size="10.00">• base_seed (collision&#45;free seed rule) · stop_token_ids</text>
</g>
<!-- S2&#45;&gt;S3 -->
<g id="edge2" class="edge">
<title>S2&#45;&gt;S3</title>
<path fill="none" stroke="#555555" stroke-width="1.4" d="M308.5,-699.95C308.5,-684.41 308.5,-666.56 308.5,-650.65"/>
<polygon fill="#555555" stroke="#555555" stroke-width="1.4" points="311.65,-650.55 308.5,-641.55 305.35,-650.55 311.65,-650.55"/>
</g>
<!-- S4 -->
<g id="node4" class="node">
<title>S4</title>
<path fill="#f6dfc9" stroke="#b87333" stroke-width="3.2" d="M580.5,-511C580.5,-511 36.5,-511 36.5,-511 30.5,-511 24.5,-505 24.5,-499 24.5,-499 24.5,-451 24.5,-451 24.5,-445 30.5,-439 36.5,-439 36.5,-439 580.5,-439 580.5,-439 586.5,-439 592.5,-445 592.5,-451 592.5,-451 592.5,-499 592.5,-499 592.5,-505 586.5,-511 580.5,-511"/>
<text text-anchor="start" x="37.5" y="-491.8" font-family="Helvetica,sans-Serif" font-weight="bold" font-size="14.00">④ PROJECTION / LENS</text>
<text text-anchor="start" x="206.5" y="-491.8" font-family="Helvetica,sans-Serif" font-size="14.00">   </text>
<text text-anchor="start" x="220.5" y="-491.8" font-family="Helvetica,sans-Serif" font-size="14.00" fill="#8a5a25">how do I read each answer?</text>
<text text-anchor="start" x="415.5" y="-491.8" font-family="Helvetica,sans-Serif" font-size="14.00">   </text>
<text text-anchor="start" x="429.5" y="-491.8" font-family="Helvetica,sans-Serif" font-weight="bold" font-size="14.00" fill="#b00020">[LOCKED BY HASH]</text>
<text text-anchor="start" x="37.5" y="-481" font-family="Helvetica,sans-Serif" font-size="10.00"> </text>
<text text-anchor="start" x="37.5" y="-471" font-family="Helvetica,sans-Serif" font-size="10.00">• extract → project → is_target</text>
<text text-anchor="start" x="37.5" y="-461" font-family="Helvetica,sans-Serif" font-size="10.00">• pack : declared classes · target_class · outcome_checker</text>
<text text-anchor="start" x="37.5" y="-451" font-family="Helvetica,sans-Serif" font-size="10.00">• fixtures · projection_pack_hash (behavior&#45;bearing)</text>
</g>
<!-- S3&#45;&gt;S4 -->
<g id="edge3" class="edge">
<title>S3&#45;&gt;S4</title>
<path fill="none" stroke="#555555" stroke-width="1.4" d="M308.5,-569.39C308.5,-554.23 308.5,-536.33 308.5,-520.27"/>
<polygon fill="#555555" stroke="#555555" stroke-width="1.4" points="311.65,-520.07 308.5,-511.07 305.35,-520.07 311.65,-520.07"/>
</g>
<!-- ART -->
<g id="node5" class="node">
<title>ART</title>
<path fill="#fff3c4" stroke="#c9a227" stroke-width="1.6" d="M568.5,-402C568.5,-402 48.5,-402 48.5,-402 42.5,-402 36.5,-396 36.5,-390 36.5,-390 36.5,-342 36.5,-342 36.5,-336 42.5,-330 48.5,-330 48.5,-330 568.5,-330 568.5,-330 574.5,-330 580.5,-336 580.5,-342 580.5,-342 580.5,-390 580.5,-390 580.5,-396 574.5,-402 568.5,-402"/>
<text text-anchor="start" x="49.5" y="-382.8" font-family="Helvetica,sans-Serif" font-weight="bold" font-size="14.00">ARTIFACTS &amp; READOUTS</text>
<text text-anchor="start" x="240.5" y="-382.8" font-family="Helvetica,sans-Serif" font-size="14.00">   </text>
<text text-anchor="start" x="254.5" y="-382.8" font-family="Helvetica,sans-Serif" font-size="14.00" fill="#8a6d12">the raw evidence (dials you read)</text>
<text text-anchor="start" x="486.5" y="-382.8" font-family="Helvetica,sans-Serif" font-size="14.00">   </text>
<text text-anchor="start" x="500.5" y="-382.8" font-family="Helvetica,sans-Serif" font-weight="bold" font-size="14.00" fill="#888888">[output]</text>
<text text-anchor="start" x="49.5" y="-372" font-family="Helvetica,sans-Serif" font-size="10.00"> </text>
<text text-anchor="start" x="49.5" y="-362" font-family="Helvetica,sans-Serif" font-size="10.00">• receipts.csv · summary_by_depth.csv · run_manifest.json</text>
<text text-anchor="start" x="49.5" y="-352" font-family="Helvetica,sans-Serif" font-size="10.00">• R_T(f) · dominant basin + mass · answer&#45;field entropy</text>
<text text-anchor="start" x="49.5" y="-342" font-family="Helvetica,sans-Serif" font-size="10.00">• yield / cap&#45;hits · Wilson intervals · class&#45;mass&#45;by&#45;depth · cost</text>
</g>
<!-- S4&#45;&gt;ART -->
<g id="edge4" class="edge">
<title>S4&#45;&gt;ART</title>
<path fill="none" stroke="#555555" stroke-width="1.4" d="M308.5,-438.96C308.5,-430.1 308.5,-420.46 308.5,-411.2"/>
<polygon fill="#555555" stroke="#555555" stroke-width="1.4" points="311.65,-411.11 308.5,-402.11 305.35,-411.11 311.65,-411.11"/>
</g>
<!-- S5 -->
<g id="node6" class="node">
<title>S5</title>
<path fill="#e3def7" stroke="#6a5acd" stroke-width="3.2" d="M592.5,-293C592.5,-293 24.5,-293 24.5,-293 18.5,-293 12.5,-287 12.5,-281 12.5,-281 12.5,-223 12.5,-223 12.5,-217 18.5,-211 24.5,-211 24.5,-211 592.5,-211 592.5,-211 598.5,-211 604.5,-217 604.5,-223 604.5,-223 604.5,-281 604.5,-281 604.5,-287 598.5,-293 592.5,-293"/>
<text text-anchor="start" x="25.5" y="-273.8" font-family="Helvetica,sans-Serif" font-weight="bold" font-size="14.00">⑤ PREDICTION / CLAIM</text>
<text text-anchor="start" x="203.5" y="-273.8" font-family="Helvetica,sans-Serif" font-size="14.00">   </text>
<text text-anchor="start" x="217.5" y="-273.8" font-family="Helvetica,sans-Serif" font-size="14.00" fill="#473b9e">what would count as support?</text>
<text text-anchor="start" x="427.5" y="-273.8" font-family="Helvetica,sans-Serif" font-size="14.00">   </text>
<text text-anchor="start" x="441.5" y="-273.8" font-family="Helvetica,sans-Serif" font-weight="bold" font-size="14.00" fill="#b00020">[LOCKED BY HASH]</text>
<text text-anchor="start" x="25.5" y="-263" font-family="Helvetica,sans-Serif" font-size="10.00"> </text>
<text text-anchor="start" x="25.5" y="-253" font-family="Helvetica,sans-Serif" font-size="10.00">• loss_rule · applies_to.source_arm</text>
<text text-anchor="start" x="25.5" y="-243" font-family="Helvetica,sans-Serif" font-size="10.00">• tests : family_structure · morphology_mode · family_before_atom</text>
<text text-anchor="start" x="25.5" y="-233" font-family="Helvetica,sans-Serif" font-size="10.00">• thresholds : entropy · min_n · depth_band</text>
<text text-anchor="start" x="25.5" y="-223" font-family="Helvetica,sans-Serif" font-size="10.00">• prediction_hash (and inside projection_pack_hash when embedded)</text>
</g>
<!-- ART&#45;&gt;S5 -->
<g id="edge5" class="edge">
<title>ART&#45;&gt;S5</title>
<path fill="none" stroke="#555555" stroke-width="1.4" d="M308.5,-329.87C308.5,-321.11 308.5,-311.56 308.5,-302.26"/>
<polygon fill="#555555" stroke="#555555" stroke-width="1.4" points="311.65,-302.08 308.5,-293.08 305.35,-302.08 311.65,-302.08"/>
</g>
<!-- VER -->
<g id="node7" class="node">
<title>VER</title>
<polygon fill="#dcebd6" stroke="#4c9a2a" stroke-width="2" points="523,-174 94,-174 94,-124 523,-124 523,-174"/>
<text text-anchor="start" x="107" y="-154.8" font-family="Helvetica,sans-Serif" font-weight="bold" font-size="14.00">VERDICT</text>
<text text-anchor="start" x="175" y="-154.8" font-family="Helvetica,sans-Serif" font-size="14.00">   supported  /  failed  /  inconclusive   </text>
<text text-anchor="start" x="443" y="-154.8" font-family="Helvetica,sans-Serif" font-weight="bold" font-size="14.00" fill="#888888">[output]</text>
<text text-anchor="start" x="107" y="-144.8" font-family="Helvetica,sans-Serif" font-size="9.00">a declared READ of the data, not the data — computed from raw receipts;</text>
<text text-anchor="start" x="107" y="-135.8" font-family="Helvetica,sans-Serif" font-size="9.00">thin / zero evidence → inconclusive</text>
</g>
<!-- S5&#45;&gt;VER -->
<g id="edge6" class="edge">
<title>S5&#45;&gt;VER</title>
<path fill="none" stroke="#555555" stroke-width="1.4" d="M308.5,-210.79C308.5,-201.66 308.5,-192.06 308.5,-183.26"/>
<polygon fill="#555555" stroke="#555555" stroke-width="1.4" points="311.65,-183.08 308.5,-174.08 305.35,-183.08 311.65,-183.08"/>
</g>
<!-- LEGEND -->
<g id="node9" class="node">
<title>LEGEND</title>
<path fill="#fbfbfb" stroke="#bbbbbb" stroke-width="1.6" d="M588.5,-87C588.5,-87 28.5,-87 28.5,-87 22.5,-87 16.5,-81 16.5,-75 16.5,-75 16.5,-12 16.5,-12 16.5,-6 22.5,0 28.5,0 28.5,0 588.5,0 588.5,0 594.5,0 600.5,-6 600.5,-12 600.5,-12 600.5,-75 600.5,-75 600.5,-81 594.5,-87 588.5,-87"/>
<text text-anchor="start" x="29.5" y="-71" font-family="Helvetica,sans-Serif" font-weight="bold" font-size="10.00">Knob state</text>
<text text-anchor="start" x="29.5" y="-61" font-family="Helvetica,sans-Serif" font-weight="bold" font-size="10.00" fill="#1f6feb">[declared &amp; recorded]</text>
<text text-anchor="start" x="157.5" y="-61" font-family="Helvetica,sans-Serif" font-size="10.00"> chosen freely; written into the manifest / receipts (model, revision, plan, sampler, arm)</text>
<text text-anchor="start" x="29.5" y="-51" font-family="Helvetica,sans-Serif" font-weight="bold" font-size="10.00" fill="#b00020">[LOCKED BY HASH]</text>
<text text-anchor="start" x="136.5" y="-51" font-family="Helvetica,sans-Serif" font-size="10.00"> frozen once declared; turning it changes the hash — no post&#45;hoc fudging</text>
<text text-anchor="start" x="29.5" y="-41" font-family="Helvetica,sans-Serif" font-weight="bold" font-size="10.00" fill="#888888">[output]</text>
<text text-anchor="start" x="75.5" y="-41" font-family="Helvetica,sans-Serif" font-size="10.00"> read, not set (artifacts &amp; verdict)</text>
<text text-anchor="start" x="29.5" y="-31.8" font-family="Helvetica,sans-Serif" font-size="9.00"> </text>
<text text-anchor="start" x="29.5" y="-22" font-family="Helvetica,sans-Serif" font-weight="bold" font-size="10.00">Tier of consequence (box color)</text>
<text text-anchor="start" x="29.5" y="-12" font-family="Helvetica,sans-Serif" font-size="10.00" fill="#b87333">■</text>
<text text-anchor="start" x="39.5" y="-12" font-family="Helvetica,sans-Serif" font-size="10.00"> Tier 1 define the object   </text>
<text text-anchor="start" x="164.5" y="-12" font-family="Helvetica,sans-Serif" font-size="10.00" fill="#0d9b8a">■</text>
<text text-anchor="start" x="174.5" y="-12" font-family="Helvetica,sans-Serif" font-size="10.00"> Tier 2 shape the measurement   </text>
<text text-anchor="start" x="337.5" y="-12" font-family="Helvetica,sans-Serif" font-size="10.00" fill="#6a5acd">■</text>
<text text-anchor="start" x="347.5" y="-12" font-family="Helvetica,sans-Serif" font-size="10.00"> Tier 3 interpret   </text>
<text text-anchor="start" x="432.5" y="-12" font-family="Helvetica,sans-Serif" font-size="10.00" fill="#777777">■</text>
<text text-anchor="start" x="442.5" y="-12" font-family="Helvetica,sans-Serif" font-size="10.00"> Tier 0 rails</text>
</g>
<!-- VER&#45;&gt;LEGEND -->
<!-- RAILS -->
<g id="node8" class="node">
<title>RAILS</title>
<path fill="#ececec" stroke="#777777" stroke-width="1.6" stroke-dasharray="5,2" d="M957.5,-663C957.5,-663 627.5,-663 627.5,-663 621.5,-663 615.5,-657 615.5,-651 615.5,-651 615.5,-560 615.5,-560 615.5,-554 621.5,-548 627.5,-548 627.5,-548 957.5,-548 957.5,-548 963.5,-548 969.5,-554 969.5,-560 969.5,-560 969.5,-651 969.5,-651 969.5,-657 963.5,-663 957.5,-663"/>
<text text-anchor="start" x="628.5" y="-643.8" font-family="Helvetica,sans-Serif" font-weight="bold" font-size="14.00">⑥ GOVERNANCE RAILS</text>
<text text-anchor="start" x="628.5" y="-629.8" font-family="Helvetica,sans-Serif" font-size="14.00" fill="#555555">what am I allowed to claim? (gates, not tuners)</text>
<text text-anchor="start" x="628.5" y="-619" font-family="Helvetica,sans-Serif" font-size="10.00"> </text>
<text text-anchor="start" x="628.5" y="-609" font-family="Helvetica,sans-Serif" font-size="10.00">• run&#45;contract tier · rigor · revision pin</text>
<text text-anchor="start" x="628.5" y="-599" font-family="Helvetica,sans-Serif" font-size="10.00">• claim ceiling · confirmation token</text>
<text text-anchor="start" x="628.5" y="-589" font-family="Helvetica,sans-Serif" font-size="10.00">• claim_level + exposure policy</text>
<text text-anchor="start" x="628.5" y="-579" font-family="Helvetica,sans-Serif" font-size="10.00">• locks: projection lock · consistency rule ·</text>
<text text-anchor="start" x="628.5" y="-569" font-family="Helvetica,sans-Serif" font-size="10.00">  fixtures gate · inconclusive&#45;dominance</text>
<text text-anchor="start" x="628.5" y="-559.8" font-family="Helvetica,sans-Serif" font-style="italic" font-size="9.00" fill="#666666">governs the whole chain: object, sampling, lens, interpretation</text>
</g>
<!-- RAILS&#45;&gt;S1 -->
<g id="edge7" class="edge">
<title>RAILS&#45;&gt;S1</title>
<path fill="none" stroke="#bdbdbd" stroke-dasharray="5,2" d="M745.94,-663.24C710.95,-702.26 659.71,-752.21 604.5,-782 577.88,-796.36 548.39,-807.9 518.63,-817.16"/>
<polygon fill="#bdbdbd" stroke="#bdbdbd" points="517.79,-815.22 512.67,-818.98 519.02,-819.24 517.79,-815.22"/>
</g>
<!-- RAILS&#45;&gt;S2 -->
<g id="edge8" class="edge">
<title>RAILS&#45;&gt;S2</title>
<path fill="none" stroke="#bdbdbd" stroke-dasharray="5,2" d="M615.3,-655.38C564.24,-669.46 509.03,-684.69 459.7,-698.29"/>
<polygon fill="#bdbdbd" stroke="#bdbdbd" points="458.94,-696.33 453.72,-699.95 460.06,-700.37 458.94,-696.33"/>
</g>
<!-- RAILS&#45;&gt;S3 -->
<g id="edge9" class="edge">
<title>RAILS&#45;&gt;S3</title>
<path fill="none" stroke="#bdbdbd" stroke-dasharray="5,2" d="M615.19,-605.5C599.35,-605.5 583.13,-605.5 566.8,-605.5"/>
<polygon fill="#bdbdbd" stroke="#bdbdbd" points="566.78,-603.4 560.78,-605.5 566.78,-607.6 566.78,-603.4"/>
<text text-anchor="start" x="569.5" y="-611.3" font-family="Helvetica,sans-Serif" font-size="9.00" fill="#888888">governs</text>
</g>
<!-- RAILS&#45;&gt;S4 -->
<g id="edge10" class="edge">
<title>RAILS&#45;&gt;S4</title>
<path fill="none" stroke="#bdbdbd" stroke-dasharray="5,2" d="M615.37,-557.47C559.75,-542.71 499.19,-526.63 446.69,-512.69"/>
<polygon fill="#bdbdbd" stroke="#bdbdbd" points="446.99,-510.6 440.65,-511.09 445.91,-514.66 446.99,-510.6"/>
</g>
<!-- RAILS&#45;&gt;S5 -->
<g id="edge11" class="edge">
<title>RAILS&#45;&gt;S5</title>
<path fill="none" stroke="#bdbdbd" stroke-dasharray="5,2" d="M765.26,-547.76C732.29,-485.12 670.91,-385.78 589.5,-330 569.12,-316.04 546.29,-304.6 522.69,-295.23"/>
<polygon fill="#bdbdbd" stroke="#bdbdbd" points="523.35,-293.24 517,-293.02 521.83,-297.15 523.35,-293.24"/>
</g>
</g>
</svg>
